<svg width="668" height="741" viewBox="0 0 668 741" fill="none" xmlns="http://www.w3.org/2000/svg">
<g clip-path="url(#clip0_95_2)">
<path d="M565.6 514.4C581.7 522.8 597.4 530.9 612.9 539.3C616 541 617.2 539.1 618.6 537.7C630 526.9 649.8 531.9 655 548.4C658 557.9 652.8 569.6 643.1 575C635 579.5 623.1 576.8 616.7 569.7C612.8 565.4 611.4 560.3 611 554.9C610.8 552.1 609.8 551 607.5 549.9C585.3 538.6 506.8 498.1 490.1 488.5C484.6 485.4 479.7 486.8 474.2 487.3C474.1 488 473.9 488.8 473.8 489.6C473.1 506.5 470.4 564.3 469.8 576.3C469.8 576.5 469.8 576.6 469.8 576.8C468.7 589.4 468.7 589.3 480 595.1C502.7 606.7 592.2 653.4 614.1 664.9C625.3 654.6 638.6 654.7 648.7 664.3C656.6 671.8 656.8 684.5 649.3 693.1C642.9 700.5 634.7 703.4 625.5 700.6C615.4 697.6 610.6 689.5 608.9 679.3C608.7 677.8 607.6 675.9 606.3 675.2C591.2 667.3 503.3 622.1 474.5 607.2C471.3 605.5 468.3 603.4 465 602.1C463.5 601.5 460.7 601.8 459.6 602.8C451.5 610.2 377.9 680.9 365.5 692.5C359.4 698.2 353 703.8 346.2 708.6C337.2 714.9 326.3 716.4 315.8 718.8C303.7 721.5 241.3 734 222.3 737.8C216.2 739 210.1 740.5 203.9 740.7C194.4 741 185.6 738.1 177.8 732.4C167 724.4 158.9 713.9 150.3 703.8C146.5 699.4 149.6 694.7 150.3 690.4C151.9 680.1 154.5 670 156.8 659.8C158 654.5 141.6 638.9 137.1 633.5C135.4 631.4 134.1 628.3 134 625.7C133.8 619.1 134.5 612.5 134.7 605.9C134.7 604.9 133.7 603.7 132.8 602.9C129.5 600.2 125.8 597.9 122.7 595.1C118.3 591.1 118 587.2 119.9 581.7C123.4 571.7 126.6 561.6 130.2 551.1C114.9 547.3 74.2998 536.5 69.4998 534C64.5998 531.5 63.1998 526.3 65.8998 521.3C69.6998 514.2 73.9998 507.4 78.0998 500.6C78.4998 499.9 79.5998 499 80.2998 499C84.5998 498.8 88.7998 498.9 94.5998 498.9C89.8998 507.7 85.7998 515.3 81.3998 523.7C86.8998 525.2 120.9 533.3 132.7 536.4C135.7 537.2 136.7 536.3 137.9 533.9C140.6 528.7 143.6 523.7 146.4 518.7C153.1 521.6 154 523.7 151.9 529.8C149.7 536.4 136.8 577.4 134.2 585C139.1 591.2 145.4 592.1 152.5 592C175.2 591.7 197.8 592 220.5 591.7C224.5 591.6 229 590.4 232.5 588.3C255.3 575.2 342.5 526.2 349.7 523.3C349.7 566.7 349.8 678.5 349.8 687.5C352.2 685.8 354.2 684.8 355.7 683.4C361.8 677.5 439.2 602.2 452.1 590.1C454.8 587.5 456 584.7 455.9 580.9C455.7 572.7 458.5 507.4 459.2 485.9C440.2 483.8 422.8 477.2 406.5 465.7C401.4 469.4 396.3 473.7 390.6 477.3C373.6 488 355.4 495.8 335.4 498.7C325.3 500.1 315.1 501.7 305 501.5C292.2 501.2 50.9998 475.1 38.3998 473.9C33.2998 473.4 28.1998 473.4 23.0998 472.7C21.3998 472.5 19.0998 471.2 18.2998 469.7C11.2998 455.7 6.99976 440.8 4.79976 425.4C2.69976 411.1 0.399758 396.8 -0.00024163 382.4C-0.600242 361.3 3.29976 340.6 9.09976 320.3C15.1998 298.8 23.4998 278.3 36.7998 260.1C40.2998 255.3 43.8998 250.4 48.2998 246.6C50.0998 245 54.2998 245.7 57.3998 245.9C67.4998 246.7 77.4998 247.8 87.5998 248.8C99.2998 250 111.1 251.4 122.8 252.7C130.3 253.5 137.9 254.1 145.4 254.8C158 256.1 170.6 257.5 183.1 258.7C194.7 259.8 206.4 260.6 218 261.8C229.6 263 241.2 264.4 252.7 265.7C259.6 266.4 266.4 267.1 273.3 267.8C281 268.5 288.7 269.4 296.4 269.8C311.7 270.7 324.8 264.6 337.3 256.8C365.7 239.1 394.2 221.5 422.7 203.9C430.9 198.8 439.1 193.8 447.2 188.6C451.2 186 450.8 180.4 446.5 178.2C425.3 167.4 367.9 138 360.1 133.9C340.1 169.6 320.2 205.2 299.8 241.6C274.3 210.9 249.2 180.6 223.8 150.1C182 173.6 140.2 197.1 97.8998 220.9C98.1998 215.2 98.1998 210.2 98.6998 205.2C99.8998 192.9 101.3 180.7 102.6 168.5C103.6 159.9 104.7 151.2 105.5 142.6C105.6 141 104.4 138.8 103.1 137.8C92.4998 130 89.2998 117.4 95.4998 106.4C102 95 117.8 91 128.5 98.9C155.9 82.3 183.5 65.7 211 49.1C218 44.9 225.2 40.9 232.3 36.9C235 35.4 236.4 33.8 236.7 30.2C237.7 19.6 243.4 12 253.6 8.30001C261.1 6.00001 272 9.30001 278.1 16C278.8 16.7 279.3 17.5 279.8 18.4C283.2 24.3 285 24.9 291.5 24.2C302.6 23 406.9 16.1 415.1 16.2C418.2 16.3 419.8 15 421.3 12.4C425.7 4.00001 436 -1.39999 445.8 0.300014C455.2 2.00001 462.2 7.40001 465.2 17C465.2 17.1 465.5 17.3 465.5 17.4C463.9 26.7 471.7 28.7 477.3 31.9C505.8 47.8 534.5 63.5 563.1 79.3C564.1 79.8 564.9 80.6 566 81.3C573.6 73.6 582.8 70.4 592.5 74.7C607.3 81.2 613.1 96.4 601.8 111.4C599.9 113.9 599.9 115.4 601.1 117.9C613.2 144.5 639.8 204.2 641.5 207.2C642.1 208.2 643.6 208.9 644.8 209.2C654.5 212.1 661.8 217.1 663.9 227.8C665.8 237.7 661.5 244.8 654.4 251C653.1 252.1 651.9 254.1 651.9 255.6C651.8 297.1 651.8 338.6 651.8 378.1C657 383.9 662.1 387.9 665 393.2C672.2 406.1 662.6 422.3 649.1 424.1C646.8 424.4 644.4 424 642 424.2C640.5 424.4 638.5 424.8 637.7 425.9C625.9 440.4 569.8 509.3 565.6 514.4ZM459.1 213.1C446 221.2 375.3 265 351.9 279.1C339 286.9 325.8 293.9 310.2 295.6C295.1 297.3 138.6 281.3 126.4 280.1C109.7 278.5 65.8998 273.6 60.6998 273.4C59.2998 273.3 56.9998 274.8 56.3998 276.1C49.3998 291.5 41.5998 306.7 35.9998 322.6C27.2998 347.2 25.1998 372.8 27.5998 398.9C29.0998 415.1 32.2998 430.9 36.8998 446.4C37.2998 447.8 38.7998 449.8 39.9998 449.9C50.5998 451.2 273.1 473.9 283.7 475.2C296.3 476.8 308.9 477.6 321.6 476.2C339.2 474.3 355.5 469.4 370.4 460.1C375.7 456.8 380.9 453.1 386.1 449.7C358.7 413.2 348.7 374.2 365.9 331.4C382.8 289.4 413.8 264.2 459.1 258.6C459.1 243.6 459.1 228.8 459.1 213.1ZM559.8 373.1C560 325 520.1 283.7 472.3 283.4C420.6 283.1 382.6 324.5 382 373.4C381.5 425 421.9 461.5 470.4 461.7C519.9 462 559.6 424.5 559.8 373.1ZM629.5 249.8C607.9 268.6 585.8 287.9 563.7 307.1C585.6 339.4 590.8 374 578.4 410.1C566.1 446.2 540.4 469.8 504.1 481.8C504.5 482.4 504.7 482.7 504.9 482.9C519.1 490.3 533.3 497.8 547.6 505.1C554.3 508.5 555.2 508.1 559.2 503.2C572.1 487.2 585.1 471.4 598 455.4C608.4 442.5 618.6 429.5 629 416.5C628.4 415.7 628 415.2 627.6 414.7C619.3 403.6 622.9 386 635.8 381.3C638.7 380.3 638.7 378.4 638.7 375.9C638.7 339.1 638.6 302.3 638.8 265.4C639 258.1 639.2 251.4 629.5 249.8ZM483.8 247.8C483.8 259.3 483.9 259 495 261.3C518.1 266.1 538.3 276.4 553.6 294.8C555.6 297.2 556.5 297 558.4 295.1C563.6 290 604.7 253.8 619.6 240.5C623.5 237.3 621.3 234.4 621.5 231.4C621.6 230.4 618.5 228.7 616.7 228.3C577.4 218.3 538 208.5 498.7 198.7C497.4 198.4 495.3 199.4 494.1 200.4C491.2 203 488.3 205.7 485.9 208.7C484.5 210.5 483 212.8 482.9 214.9C482.6 224.8 483.8 246.6 483.8 247.8ZM331.2 606.1C328.6 606.1 327.2 606.1 325.7 606.1C294.4 606.1 263.1 606.2 231.8 606C228.3 606 226.5 607.3 224.8 610C206.1 639.3 187.4 668.6 168.4 697.8C166.8 700.2 167.1 701.7 168.5 703.3C175.9 711.5 182.7 720.3 192.7 725.6C196.5 727.6 200.4 728.6 204.1 725.4C209.7 720.5 215.3 715.7 220.7 710.6C233.6 698.4 320 616.7 331.2 606.1ZM452.8 45.7C453.1 46.6 453.5 47.5 453.7 48.4C456.9 64.6 472.6 139.5 476.5 161C477.5 166.8 482.1 165 484.6 167.2C485.2 167.7 487.9 166.2 489.3 165.1C501.4 155.6 548.7 118.2 560.3 109.1C563 107 561.7 92.9 558.5 91.1C539.8 80.7 479 47 467.4 40.4C463.8 38.4 460.7 37.2 457.7 41.5C456.7 43.1 454.8 44 452.8 45.7ZM588.3 119.7C583.5 119.1 579.2 119.1 575.1 118C572.5 117.3 571.1 117.6 569 119.2C558.6 127.7 510.6 165.3 497.5 176.1C496.3 177.1 496.6 180.4 496.9 182.6C497 183.6 498.7 184.8 499.8 185.1C540.1 195.5 580.5 205.8 620.9 216.2C624.3 217.1 627.2 216.4 628.9 213.9C629.8 212.5 629.2 209.5 628.4 207.6C619.6 187.5 592.7 128.8 588.3 119.7ZM355.9 115.8C377.8 88.8 399.4 62.3 420 36.8C420.1 28.2 414.9 28.8 410 29.1C400.3 29.7 390.6 30.5 380.9 31.1C373 31.6 365 31.8 357.1 32.2C351.8 32.5 346.6 32.8 341.3 33.2C325.2 34.5 309.1 36 293 37C286.2 37.4 280.3 38.2 279 46.6C304.4 69.4 329.9 92.4 355.9 115.8ZM366.7 123.8C367.9 124.5 368.7 125 369.6 125.5C396.1 139.1 422.6 152.5 448.9 166.4C454.7 169.4 459.4 171.2 464.1 165.4C456.2 126.5 448.2 87.4 440.2 48.4C438.6 48 436.9 47.8 435.4 47.2C430.4 44.9 427.8 47.8 425.1 51.4C416.6 62.5 408 73.4 399.2 84.2C388.5 97.4 377.7 110.5 366.7 123.8ZM343.5 120C328.7 106.7 314.4 93.8 300 80.8C293.5 74.9 286.9 69.2 280.4 63.3C274.7 58.1 269.4 52.8 260.4 55.9C257.7 56.8 256.4 57.3 255.6 60.2C249.2 84.9 242.6 109.6 235.9 134.6C271.8 129.7 307.5 124.9 343.5 120ZM223.3 135.2C230.2 108.4 236.9 81.7 244 55.1C245 51.2 243.3 49.8 241.1 48.1C206.5 68.6 172.3 89 138.2 109.2C138.3 116 141.2 119.6 148.1 119.3C149.8 119.2 151.6 120 153.4 120.4C176.5 125.3 199.8 130.3 223.3 135.2ZM236.4 147.2C257 172.2 276.7 196 296.8 220.4C313.2 191.2 329.4 162.4 346.1 132.5C309.1 137.5 273.5 142.3 236.4 147.2ZM334.6 620.3C298.1 654.8 261.6 689.3 224.9 724C261.9 716.3 298.5 708.7 335.3 701.1M118.7 142.5C116.5 160.9 114.2 180.2 111.8 199.9C144.6 181.6 176.9 163.5 209.4 145.3C208 144.9 206.8 144.4 205.5 144.1C186.9 140.1 168.3 136.1 149.6 132.2C142.7 130.8 135.9 128.9 130.4 136.4C128.3 139.4 123.2 140.3 118.7 142.5ZM336.1 544C308.2 560.2 280.3 576.3 252.5 592.4C252.6 592.7 252.7 593 252.8 593.3C280.3 593.3 307.9 593.3 336.1 593.3C336.1 577.2 336.1 561 336.1 544ZM209 606.5C188.7 606.5 168.4 606.5 148.3 606.5C147.8 611.9 147.2 617 146.9 622C146.8 623 147.5 624.2 148.2 625C151.9 629.2 155.9 633.2 159.5 637.4C165.8 644.8 172.5 652 170.8 663C170.5 665.1 170.2 667.1 169.7 670.4C183.2 648.4 196.1 627.5 209 606.5Z" fill="url(#paint0_linear_95_2)"/>
<path d="M51.3999 399.4C68.0999 401.1 83.6999 402.5 99.3999 404.2C116 406 132.6 408.2 149.2 410.1C157.5 411 165.9 411.4 174.3 412.2C185.9 413.4 197.4 414.8 209 416.1C216.2 416.9 223.4 417.4 230.6 418.2C242 419.4 253.4 420.9 264.8 422.1C272.5 422.9 280.2 423.8 287.9 424.1C297.3 424.5 306.6 424.4 316 424.1C320.9 423.9 325.8 423.2 330.5 421.7C334.2 420.6 335 422 335.9 425C337.7 430.5 340 435.8 342.2 441.4C333.6 445.3 324.6 447.8 315.1 448.2C308.3 448.5 301.5 449.5 294.8 449.1C282.9 448.3 271 446.6 259.1 445.4C252.1 444.7 245 444 238 443.3C226.3 442 214.5 440.6 202.8 439.4C195.1 438.6 187.4 438.1 179.7 437.3C168.1 436.1 156.6 434.7 145 433.4C138.1 432.6 131.3 432 124.4 431.3C112.2 430 99.8999 428.7 87.6999 427.4C78.5999 426.4 69.4999 425.1 60.2999 424.5C57.0999 424.3 56.1999 423.3 55.6999 420.2C54.4999 413.1 52.7999 406.4 51.3999 399.4Z" fill="url(#paint1_linear_95_2)"/>
<path d="M326.1 370.1C326.1 378.9 326.1 387.1 326.1 395.8C311.9 399.8 296.9 400 281.7 398.3C273.7 397.4 265.6 397 257.6 396.1C246.3 394.9 235.1 393.5 223.9 392.2C216.5 391.4 209.2 390.8 201.8 390.1C189.4 388.8 177 387.4 164.6 386.2C156.7 385.4 148.9 384.9 141 384.1C129.2 382.9 117.5 381.5 105.8 380.2C98.8002 379.4 91.7002 378.8 84.7002 378.1C74.4002 377.1 64.1002 376.1 53.8002 375.1C50.1002 374.8 50.8002 372 51.0002 369.9C51.6002 363.9 52.5002 357.9 53.3002 351.2C58.8002 351.6 64.5002 351.8 70.2002 352.3C75.4002 352.8 80.6002 353.5 85.8002 354.1C98.5002 355.4 111.3 356.8 124.1 358C132.1 358.8 140.2 359.3 148.2 360.1C159.1 361.3 170 362.7 180.9 363.9C188.4 364.7 196 365.3 203.5 366C216.4 367.3 229.3 368.7 242.2 369.9C250.7 370.7 259.3 371.3 267.8 372C276.7 372.7 285.6 374.1 294.4 373.8C303.7 373.5 312.9 371.5 322.1 370.3C323.1 370.4 324.1 370.3 326.1 370.1Z" fill="url(#paint2_linear_95_2)"/>
<path d="M335.6 317.9C333.2 325.6 331 333.6 328 341.3C327.2 343.3 324.3 345.5 322.1 345.8C312.4 347.3 302.5 349.1 292.8 348.9C279.7 348.6 266.6 346.5 253.6 345.2C245.6 344.4 237.5 343.9 229.5 343.1C217.2 341.9 205 340.5 192.8 339.2C184.9 338.4 177.1 337.8 169.2 337.1C156.8 335.9 144.4 334.5 132 333.2C124.6 332.4 117.3 331.8 109.9 331.1C97.1998 329.8 84.3998 328.4 71.6998 327.3C67.8998 327 64.0998 327.2 59.2998 327.2C61.9998 319.4 64.2998 312.3 67.0998 305.4C68.7998 301.2 72.9998 303.2 75.8998 303.4C85.1998 304 94.4998 305.2 103.8 306.2C116 307.5 128.3 308.9 140.5 310.1C149.2 310.9 157.9 311.3 166.6 312.2C178.4 313.4 190.1 314.8 201.8 316C209.7 316.8 217.5 317.4 225.4 318.1C238 319.3 250.5 321.2 263.1 321.9C279.5 322.7 295.9 326.4 312.3 322.2C319.8 320.4 327.5 319.4 335.6 317.9Z" fill="url(#paint3_linear_95_2)"/>
<path d="M503.4 388.7C512.7 398.7 522.7 409.4 533.6 421C525.4 421 518.2 421 511 420.9C510.3 420.9 509.6 420.2 509 419.6C498.5 408.5 488.1 397.4 477.6 386.4C475.5 384.2 474.1 382.5 475.6 379.1C477.3 375.1 478 370.7 479.2 366.5C483.3 367.8 487.4 369.3 491.5 370.4C497.8 372.1 504.3 369.7 507.5 364.7C510.2 360.6 510.2 352.5 506.4 348.7C504.1 346.3 500.3 344.8 496.9 344.2C491.3 343.1 485.4 343.1 479.2 342.6C471.2 368.9 463.3 394.8 455.4 420.7C455.1 420.8 454.9 420.9 454.8 421C440.4 422 440.4 422 436.4 407.4C429.2 380.5 422.1 353.6 414.8 326.5C420.6 326.5 426.2 326.5 432.4 326.5C437.2 345.3 442 364.4 446.7 383.2C449.7 372.6 452.6 361.9 455.7 351.3C457.9 344 460.2 336.7 462.7 329.4C463.1 328.2 464.7 326.4 465.7 326.4C480.2 326.9 494.8 326.8 509.2 328.5C520.7 329.9 528.1 339.5 529.7 351.2C531.3 362.8 528.6 373.2 519.4 380.7C515.1 384.2 509.1 385.9 503.4 388.7Z" fill="url(#paint4_linear_95_2)"/>
</g>
<defs>
<linearGradient id="paint0_linear_95_2" x1="1.94593e-05" y1="-1.75142e-05" x2="667" y2="741" gradientUnits="userSpaceOnUse">
<stop stop-color="#2F59ED"/>
<stop offset="1" stop-color="#390072"/>
</linearGradient>
<linearGradient id="paint1_linear_95_2" x1="196.8" y1="399.4" x2="196.8" y2="449.193" gradientUnits="userSpaceOnUse">
<stop stop-color="#F800FF"/>
<stop offset="1" stop-color="#6A09BF"/>
</linearGradient>
<linearGradient id="paint2_linear_95_2" x1="188.458" y1="351.2" x2="188.458" y2="399.311" gradientUnits="userSpaceOnUse">
<stop stop-color="#F800FF"/>
<stop offset="1" stop-color="#6A09BF"/>
</linearGradient>
<linearGradient id="paint3_linear_95_2" x1="197.45" y1="302.75" x2="197.45" y2="348.915" gradientUnits="userSpaceOnUse">
<stop stop-color="#F800FF"/>
<stop offset="1" stop-color="#6A09BF"/>
</linearGradient>
<linearGradient id="paint4_linear_95_2" x1="534" y1="326" x2="415" y2="421" gradientUnits="userSpaceOnUse">
<stop stop-color="#5E9EDA"/>
<stop offset="1" stop-color="#3935BD"/>
</linearGradient>
<clipPath id="clip0_95_2">
<rect width="667.4" height="741" fill="white"/>
</clipPath>
</defs>
</svg>
